# xmcd CD database file generated by OrangeCD 5.2
#
# Track frame offsets:
#	183
#	12640
#	21745
#	34045
#	46398
#	55890
#	65848
#	75960
#	88883
#	99518
#	107385
#	116708
#	126493
#	138208
#	153878
#	162785
#	172245
#	182400
#
# Disc length: 2553 seconds
#
# Revision: 2
# Processed by: cddbd v1.5.1PL0 Copyright (c) Steve Scherf et al.
# Submitted via: OrangeCD 5.2
#
DISCID=f209f712
DTITLE=Jackie Wilson - Reet Petite
DYEAR=1986
DGENRE=Blues
TTITLE0=Reet Petite (The Finest Girl You Ever Want To Meet)
TTITLE1=Why Can't You Be Mine
TTITLE2=I'm Wandering
TTITLE3=Lonely Teardrops
TTITLE4=Shake, Shake, Shake
TTITLE5=It's So Fine
TTITLE6=Come Back To Me
TTITLE7=Doggin' Around
TTITLE8=Jackie Wilson and Linda Hopkins - Do Lord
TTITLE9=If I Can't Have You
TTITLE10=(You Were Made For) All My Love
TTITLE11=So Much
TTITLE12=I Know I'll Always Be In Love With You
TTITLE13=Danny Boy
TTITLE14=You Better Know It
TTITLE15=I'll Be Satisfied
TTITLE16=Talk That Talk
TTITLE17=That's Why (I Love You So)
EXTD=
EXTT0=
EXTT1=
EXTT2=
EXTT3=
EXTT4=
EXTT5=
EXTT6=
EXTT7=
EXTT8=WITH LINDA HOPKINS \n
EXTT9=
EXTT10=
EXTT11=
EXTT12=
EXTT13=
EXTT14=
EXTT15=
EXTT16=
EXTT17=
PLAYORDER=
